<svg xmlns="http://www.w3.org/2000/svg" version="1.1" xmlns:xlink="http://www.w3.org/1999/xlink" xmlns:svgjs="http://svgjs.dev/svgjs" width="2000" height="570" viewBox="0 0 2000 570"><g transform="matrix(1,0,0,1,-1.2121212121212466,0.9020300740796756)"><svg viewBox="0 0 396 113" data-background-color="#ffffff" preserveAspectRatio="xMidYMid meet" height="570" width="2000" xmlns="http://www.w3.org/2000/svg" xmlns:xlink="http://www.w3.org/1999/xlink"><g id="tight-bounds" transform="matrix(1,0,0,1,0.2400000000000091,-0.17882350591403906)"><svg viewBox="0 0 395.52 113.35764701182806" height="113.35764701182806" width="395.52"><g><svg viewBox="0 0 539.7511951302888 154.6948964699424" height="113.35764701182806" width="395.52"><g transform="matrix(1,0,0,1,144.23119513028882,21.379685402141106)"><svg viewBox="0 0 395.52000000000004 111.93552566566018" height="111.93552566566018" width="395.52000000000004"><g id="textblocktransform"><svg viewBox="0 0 395.52000000000004 111.93552566566018" height="111.93552566566018" width="395.52000000000004" id="textblock"><g><svg viewBox="0 0 395.52000000000004 111.93552566566018" height="111.93552566566018" width="395.52000000000004"><g transform="matrix(1,0,0,1,0,0)"><svg width="395.52000000000004" viewBox="1.85 -38.6 182.14000000000001 51.55" height="111.93552566566018" data-palette-color="#ffffff"><path d="M1.85-17.45Q1.85-22.55 4.23-26.6 6.6-30.65 10.68-32.93 14.75-35.2 19.6-35.2L19.6-35.2Q25.15-35.2 29.48-32.48 33.8-29.75 35.75-24.75L35.75-24.75 28.9-24.75Q27.55-27.5 25.15-28.85 22.75-30.2 19.6-30.2L19.6-30.2Q16.15-30.2 13.45-28.65 10.75-27.1 9.22-24.2 7.7-21.3 7.7-17.45L7.7-17.45Q7.7-13.6 9.22-10.7 10.75-7.8 13.45-6.23 16.15-4.65 19.6-4.65L19.6-4.65Q22.75-4.65 25.15-6 27.55-7.35 28.9-10.1L28.9-10.1 35.75-10.1Q33.8-5.1 29.48-2.4 25.15 0.3 19.6 0.3L19.6 0.3Q14.7 0.3 10.65-1.98 6.6-4.25 4.23-8.3 1.85-12.35 1.85-17.45L1.85-17.45ZM40.5-13.9Q40.5-18.05 42.22-21.25 43.95-24.45 46.92-26.23 49.9-28 53.5-28L53.5-28Q56.75-28 59.17-26.73 61.6-25.45 63.05-23.55L63.05-23.55 63.05-27.55 68.8-27.55 68.8 0 63.05 0 63.05-4.1Q61.6-2.15 59.1-0.85 56.6 0.45 53.4 0.45L53.4 0.45Q49.85 0.45 46.9-1.38 43.95-3.2 42.22-6.48 40.5-9.75 40.5-13.9L40.5-13.9ZM63.05-13.8Q63.05-16.65 61.87-18.75 60.7-20.85 58.8-21.95 56.9-23.05 54.7-23.05L54.7-23.05Q52.5-23.05 50.6-21.98 48.7-20.9 47.52-18.82 46.35-16.75 46.35-13.9L46.35-13.9Q46.35-11.05 47.52-8.9 48.7-6.75 50.62-5.63 52.55-4.5 54.7-4.5L54.7-4.5Q56.9-4.5 58.8-5.6 60.7-6.7 61.87-8.83 63.05-10.95 63.05-13.8L63.05-13.8ZM82-23.55Q83.25-25.65 85.32-26.83 87.4-28 90.25-28L90.25-28 90.25-22.1 88.8-22.1Q85.45-22.1 83.72-20.4 82-18.7 82-14.5L82-14.5 82 0 76.3 0 76.3-27.55 82-27.55 82-23.55ZM93.59-13.9Q93.59-18.05 95.32-21.25 97.04-24.45 100.02-26.23 102.99-28 106.64-28L106.64-28Q109.34-28 111.97-26.83 114.59-25.65 116.14-23.7L116.14-23.7 116.14-37 121.89-37 121.89 0 116.14 0 116.14-4.15Q114.74-2.15 112.27-0.85 109.79 0.45 106.59 0.45L106.59 0.45Q102.99 0.45 100.02-1.38 97.04-3.2 95.32-6.48 93.59-9.75 93.59-13.9L93.59-13.9ZM116.14-13.8Q116.14-16.65 114.97-18.75 113.79-20.85 111.89-21.95 109.99-23.05 107.79-23.05L107.79-23.05Q105.59-23.05 103.69-21.98 101.79-20.9 100.62-18.82 99.44-16.75 99.44-13.9L99.44-13.9Q99.44-11.05 100.62-8.9 101.79-6.75 103.72-5.63 105.64-4.5 107.79-4.5L107.79-4.5Q109.99-4.5 111.89-5.6 113.79-6.7 114.97-8.83 116.14-10.95 116.14-13.8L116.14-13.8ZM132.29-31.2Q130.74-31.2 129.69-32.25 128.64-33.3 128.64-34.85L128.64-34.85Q128.64-36.4 129.69-37.45 130.74-38.5 132.29-38.5L132.29-38.5Q133.79-38.5 134.84-37.45 135.89-36.4 135.89-34.85L135.89-34.85Q135.89-33.3 134.84-32.25 133.79-31.2 132.29-31.2L132.29-31.2ZM129.39-27.55L135.09-27.55 135.09 0 129.39 0 129.39-27.55ZM154.14-27.55L154.14-22.9 149.04-22.9 149.04 0 143.29 0 143.29-22.9 140.04-22.9 140.04-27.55 143.29-27.55 143.29-29.5Q143.29-34.25 145.81-36.43 148.34-38.6 153.74-38.6L153.74-38.6 153.74-33.85Q151.14-33.85 150.09-32.88 149.04-31.9 149.04-29.5L149.04-29.5 149.04-27.55 154.14-27.55ZM178.09-27.55L183.99-27.55 167.09 12.95 161.19 12.95 166.78-0.45 155.94-27.55 162.28-27.55 170.03-6.55 178.09-27.55Z" opacity="1" transform="matrix(1,0,0,1,0,0)" fill="#ffffff" class="wordmark-text-0" data-fill-palette-color="primary" id="text-0"></path></svg></g></svg></g></svg></g></svg></g><g><svg viewBox="0 0 117.80590397324242 154.6948964699424" height="154.6948964699424" width="117.80590397324242"><g><svg xmlns="http://www.w3.org/2000/svg" xmlns:xlink="http://www.w3.org/1999/xlink" version="1.1" x="0" y="0" viewBox="18.084 8.089863346222403 63.8313828644866 83.8191366537776" enable-background="new 0 0 100 100" xml:space="preserve" height="154.6948964699424" width="117.80590397324242" class="icon-icon-0" data-fill-palette-color="accent" id="icon-0"><g fill="#ffffff" data-fill-palette-color="accent"><path fill="#ffffff" d="M75.831 81.262C75.37 85.817 71.71 89.089 67.652 88.571L33.122 84.153C29.067 83.632 26.154 79.521 26.615 74.966L32.65 15.451C33.114 10.896 36.773 7.625 40.832 8.144L75.361 12.561C79.418 13.081 82.33 17.193 81.867 21.748z" data-fill-palette-color="accent"></path><path fill="#ffffff" d="M28.725 87.08C24.67 86.561 21.756 82.448 22.217 77.893L28.253 18.379A9 9 0 0 1 29.082 15.41H25.475C21.392 15.41 18.084 19.126 18.084 23.711V83.607C18.084 88.193 21.392 91.909 25.475 91.909H60.229C61.095 91.909 61.922 91.732 62.696 91.425z" data-fill-palette-color="accent"></path></g></svg></g></svg></g></svg></g><defs></defs></svg><rect width="395.52" height="113.35764701182806" fill="none" stroke="none" visibility="hidden"></rect></g></svg></g></svg>